<?xml version='1.0' encoding='UTF-8'?>
<svg x="0px" y="0px" viewBox="0 0 32 32" version="1.1" xmlns="http://www.w3.org/2000/svg" xmlns:xlink="http://www.w3.org/1999/xlink" xml:space="preserve" id="Layer_1">
  <g id="PaymentUnpaid">
    <path d="M16,2C8.2,2,2,8.2,2,16s6.2,14,14,14s14-6.2,14-14S23.8,2,16,2z M16,6c2,0,4,0.6,5.6,1.6L7.8,21.4   C6.6,20,6,18,6,16C6,10.4,10.4,6,16,6z M16,26c-2,0-4-0.6-5.6-1.6l13.8-13.8C25.4,12,26,14,26,16C26,21.6,21.6,26,16,26z" fill="#D11C1C" class="Red" />
  </g>
</svg>