<?xml version='1.0' encoding='UTF-8'?>
<svg x="0px" y="0px" viewBox="0 0 32 32" version="1.1" xmlns="http://www.w3.org/2000/svg" xmlns:xlink="http://www.w3.org/1999/xlink" xml:space="preserve" id="Layer_1">
  <g id="Task">
    <path d="M27,2h-3v24H8V2H5C4.4,2,4,2.4,4,3v26c0,0.6,0.4,1,1,1h22c0.6,0,1-0.4,1-1V3C28,2.4,27.6,2,27,2z" fill="#FFB115" class="Yellow" />
    <path d="M20,2V1c0-0.6-0.4-1-1-1h-6c-0.6,0-1,0.4-1,1v1h-2v4h12V2H20z" fill="#727272" class="Black" />
    <path d="M22,10l-8,8l-4-4v4c1.7,1.8,4,4,4,4l8-8V10z" fill="#039C23" class="Green" />
  </g>
</svg>